<svg xmlns="http://www.w3.org/2000/svg" viewBox="0 0 598.69 106.2"><defs><style>.cls-1{fill:#fff;}</style></defs><title>ic-gov</title><g id="Layer_2" data-name="Layer 2"><g id="Layer_1-2" data-name="Layer 1"><g id="Layer_2-2" data-name="Layer 2"><g id="Layer_1-2-2" data-name="Layer 1-2"><path class="cls-1" d="M0,103.8H109.54V0H0ZM16.64,14.63H38.37V25.1A37.86,37.86,0,0,1,94.9,29.93L80.69,40.48a20.19,20.19,0,1,0-.29,24.45L94.34,75.81a37.84,37.84,0,0,1-56,4.1V90.75H16.64Z"/><path class="cls-1" d="M38.37,79.91V25.1A37.84,37.84,0,0,0,37,78.6q.64.68,1.32,1.32Z"/><path class="cls-1" d="M127.46,44.92V15.34h5.75V44.92Z"/><path class="cls-1" d="M142.62,26V45h-5.75V15.34h4.46l15.41,19.41V15.38h5.75V44.92h-4.67Z"/><path class="cls-1" d="M166.16,44.92V15.34h10.75a16.07,16.07,0,0,1,6.35,1.17,12.77,12.77,0,0,1,7.31,7.85,17.63,17.63,0,0,1,.92,5.73,17.32,17.32,0,0,1-1,6.1,13,13,0,0,1-2.94,4.67,13.24,13.24,0,0,1-4.6,3,16.25,16.25,0,0,1-6,1.06ZM185.7,30.09a12.57,12.57,0,0,0-.58-3.92,8.77,8.77,0,0,0-1.71-3.08,7.62,7.62,0,0,0-2.77-2,9.36,9.36,0,0,0-3.73-.71h-5v19.5h5a9,9,0,0,0,3.77-.75,7.72,7.72,0,0,0,2.75-2.06,9.19,9.19,0,0,0,1.69-3.1,12.43,12.43,0,0,0,.57-3.88Z"/><path class="cls-1" d="M194.32,44.92V15.34h5.75V44.92Z"/><path class="cls-1" d="M225.1,41.59a11.3,11.3,0,0,1-8.25,3.54A13.07,13.07,0,0,1,211.38,44a13.86,13.86,0,0,1-4.46-3.21,15.3,15.3,0,0,1-3-4.81,16,16,0,0,1-1.1-6A15,15,0,0,1,207,19.53a14.57,14.57,0,0,1,4.56-3.21,13.68,13.68,0,0,1,5.71-1.19,13.87,13.87,0,0,1,7.14,1.75,11.32,11.32,0,0,1,4.48,4.71l-4.29,3.17a8,8,0,0,0-3.14-3.37A8.64,8.64,0,0,0,217,20.22a7.51,7.51,0,0,0-3.44.79,8.05,8.05,0,0,0-2.67,2.17,10.21,10.21,0,0,0-1.71,3.17,11.77,11.77,0,0,0-.6,3.79,11.21,11.21,0,0,0,.67,3.89,9.89,9.89,0,0,0,1.83,3.14,8.56,8.56,0,0,0,2.77,2.1,7.93,7.93,0,0,0,3.48.77q4.29,0,7.75-4V33.92h-6V29.71h10.71V44.92H225.1Z"/><path class="cls-1" d="M253.64,39.88v5H233.1V15.34h20.16v5H238.85v7.12h12.46v4.67H238.85v7.71Z"/><path class="cls-1" d="M262.22,26V45h-5.75V15.34h4.46l15.41,19.41V15.38h5.75V44.92h-4.66Z"/><path class="cls-1" d="M299.21,45.13a13.44,13.44,0,0,1-5.89-1.27,14.44,14.44,0,0,1-4.54-3.37,15.63,15.63,0,0,1-4-10.35,14.88,14.88,0,0,1,1.1-5.67,15.66,15.66,0,0,1,3-4.79,14.53,14.53,0,0,1,4.6-3.31,13.68,13.68,0,0,1,5.79-1.23,13,13,0,0,1,5.85,1.31,14.6,14.6,0,0,1,4.52,3.44,15.81,15.81,0,0,1,2.92,4.83,15.21,15.21,0,0,1,1,5.5,15,15,0,0,1-1.08,5.65,15.39,15.39,0,0,1-3,4.75A14.41,14.41,0,0,1,305,43.9,13.65,13.65,0,0,1,299.21,45.13Zm-8.58-15a11.89,11.89,0,0,0,.58,3.71A9.91,9.91,0,0,0,292.9,37a8.05,8.05,0,0,0,12.75-.06,10.16,10.16,0,0,0,1.67-3.19,11.86,11.86,0,0,0,.56-3.6,11.55,11.55,0,0,0-.6-3.71,10.28,10.28,0,0,0-1.71-3.17,8.19,8.19,0,0,0-2.71-2.19,8.44,8.44,0,0,0-7.31,0,8.23,8.23,0,0,0-2.71,2.25,10.09,10.09,0,0,0-1.64,3.17A11.8,11.8,0,0,0,290.63,30.13Z"/><path class="cls-1" d="M329.75,40a6.6,6.6,0,0,0,3.44-.83A6.71,6.71,0,0,0,335.43,37a9,9,0,0,0,1.21-3,17.82,17.82,0,0,0,.35-3.56V15.34h5.71V30.42a21.56,21.56,0,0,1-.73,5.71,13.08,13.08,0,0,1-2.29,4.67,11,11,0,0,1-4,3.17,13.6,13.6,0,0,1-5.87,1.17,13.44,13.44,0,0,1-6-1.23,11.21,11.21,0,0,1-4-3.25A13,13,0,0,1,317.52,36a22.12,22.12,0,0,1-.69-5.54V15.34h5.75V30.42a17.89,17.89,0,0,0,.35,3.6,8.9,8.9,0,0,0,1.21,3.06,6.26,6.26,0,0,0,5.6,3Z"/><path class="cls-1" d="M363.61,23.09a7.11,7.11,0,0,0-1.06-.79,12.94,12.94,0,0,0-1.87-1,16.23,16.23,0,0,0-2.4-.81,10.48,10.48,0,0,0-2.62-.33,5.88,5.88,0,0,0-3.54.87,2.89,2.89,0,0,0-1.17,2.46,2.52,2.52,0,0,0,.44,1.52,3.77,3.77,0,0,0,1.27,1.06,10.54,10.54,0,0,0,2.1.83q1.27.38,2.94.79a41.27,41.27,0,0,1,3.94,1.25,10.67,10.67,0,0,1,3,1.67,6.89,6.89,0,0,1,1.9,2.4,8,8,0,0,1,.67,3.44,8.56,8.56,0,0,1-.9,4.06,7.53,7.53,0,0,1-2.42,2.73,10.48,10.48,0,0,1-3.5,1.52,17.58,17.58,0,0,1-4.14.48,22.26,22.26,0,0,1-6.58-1,20.32,20.32,0,0,1-5.83-2.83l2.54-5a8,8,0,0,0,1.35,1A20.67,20.67,0,0,0,350,38.65a18,18,0,0,0,3,1,13.34,13.34,0,0,0,3.33.42q4.75,0,4.75-3a2.49,2.49,0,0,0-.54-1.62,4.59,4.59,0,0,0-1.54-1.2,14.83,14.83,0,0,0-2.42-.92l-3.17-.92a26.94,26.94,0,0,1-3.69-1.27,9.71,9.71,0,0,1-2.61-1.63,6.07,6.07,0,0,1-1.56-2.17A7.48,7.48,0,0,1,345,24.4a9.17,9.17,0,0,1,.83-4,8.07,8.07,0,0,1,2.31-2.92,10.46,10.46,0,0,1,3.44-1.77,14.21,14.21,0,0,1,4.21-.6,16.33,16.33,0,0,1,5.75,1,21.38,21.38,0,0,1,4.58,2.31Z"/><path class="cls-1" d="M124.08,70.92a20.33,20.33,0,0,1,1.36-7.42,18.06,18.06,0,0,1,3.92-6.14,19.11,19.11,0,0,1,6.21-4.21,20.53,20.53,0,0,1,8.21-1.57,19.67,19.67,0,0,1,10.45,2.64,16.87,16.87,0,0,1,6.46,6.92L151.34,64a8.41,8.41,0,0,0-3.21-3.18,9,9,0,0,0-4.42-1.11,9.12,9.12,0,0,0-3.85.82,9.47,9.47,0,0,0-3.1,2.28,10.56,10.56,0,0,0-2.07,3.53,13.34,13.34,0,0,0-.75,4.57,12.75,12.75,0,0,0,.79,4.57,11.5,11.5,0,0,0,2.1,3.57,9.22,9.22,0,0,0,3.1,2.32,8.92,8.92,0,0,0,3.78.82,9.18,9.18,0,0,0,4.75-1.28,7.22,7.22,0,0,0,3-3.14l9.35,2.85a15.72,15.72,0,0,1-6.35,7,20,20,0,0,1-10.63,2.71,20.55,20.55,0,0,1-8.21-1.57A18.58,18.58,0,0,1,125.47,78.3,20,20,0,0,1,124.08,70.92Z"/><path class="cls-1" d="M175.46,90.33a14.19,14.19,0,0,1-5.07-.89,12.15,12.15,0,0,1-4.07-2.5,11.63,11.63,0,0,1-2.68-3.75,11.36,11.36,0,0,1-1-4.71,10.38,10.38,0,0,1,1.18-4.89,11.23,11.23,0,0,1,3.28-3.82,16.3,16.3,0,0,1,5-2.46,22,22,0,0,1,6.42-.89,27.63,27.63,0,0,1,4.89.43,20,20,0,0,1,4.25,1.21V65.92a7.5,7.5,0,0,0-2.1-5.71q-2.11-2-6.24-2a16.54,16.54,0,0,0-5.85,1.07,27.21,27.21,0,0,0-5.85,3.14l-2.93-6.07a27.61,27.61,0,0,1,15.56-4.78q8.06,0,12.52,4T197.29,67V78.62a3.36,3.36,0,0,0,.54,2.14,2.34,2.34,0,0,0,1.75.71V89.6a21.3,21.3,0,0,1-4.21.5,6.38,6.38,0,0,1-4.18-1.21,5.21,5.21,0,0,1-1.82-3.21l-.21-2.07a16.53,16.53,0,0,1-6.07,5A17.42,17.42,0,0,1,175.46,90.33Zm2.71-7a12.49,12.49,0,0,0,4.6-.86,8.37,8.37,0,0,0,3.39-2.28,3.44,3.44,0,0,0,1.57-2.71V73.2a23.45,23.45,0,0,0-3.71-1,20,20,0,0,0-3.85-.39,10.22,10.22,0,0,0-6.07,1.68,5,5,0,0,0-2.36,4.25,5.11,5.11,0,0,0,1.86,4,6.74,6.74,0,0,0,4.57,1.59Z"/><path class="cls-1" d="M225.62,60.5a18.87,18.87,0,0,0-7.78,1.68A9.82,9.82,0,0,0,212.92,67V89.61h-9.56V52.22h8.78v8a17.09,17.09,0,0,1,2.35-3.46,18.15,18.15,0,0,1,2.93-2.68,13.58,13.58,0,0,1,3.17-1.75,8.79,8.79,0,0,1,3.1-.61h1.18a3.88,3.88,0,0,1,.75.07Z"/><path class="cls-1" d="M246.46,90.33a20.74,20.74,0,0,1-8.13-1.53,18.34,18.34,0,0,1-10.17-10.31,19.69,19.69,0,0,1-1.39-7.35,20.81,20.81,0,0,1,1.36-7.53A18.35,18.35,0,0,1,232,57.4a18.74,18.74,0,0,1,6.24-4.25,20.79,20.79,0,0,1,8.24-1.57,20.28,20.28,0,0,1,8.17,1.57,18.81,18.81,0,0,1,6.14,4.21,17.91,17.91,0,0,1,3.85,6.14A20.45,20.45,0,0,1,266,70.78v1.78a7.28,7.28,0,0,1-.2,1.44H236.9a11.08,11.08,0,0,0,1.1,3.91,9.61,9.61,0,0,0,5.28,4.78,10.07,10.07,0,0,0,3.57.64,11,11,0,0,0,5.39-1.39,7.37,7.37,0,0,0,3.46-3.67l8.21,2.28a16.68,16.68,0,0,1-6.6,7A20.47,20.47,0,0,1,246.46,90.33Zm9.7-22.55a9.94,9.94,0,0,0-3.1-6.74,9.58,9.58,0,0,0-15.34,3,10.31,10.31,0,0,0-1,3.78Z"/><path class="cls-1" d="M289.2,90.33a20.75,20.75,0,0,1-8.13-1.53A18.34,18.34,0,0,1,270.9,78.48a19.69,19.69,0,0,1-1.39-7.35,20.81,20.81,0,0,1,1.36-7.53,18.35,18.35,0,0,1,3.92-6.21A18.74,18.74,0,0,1,281,53.15a20.78,20.78,0,0,1,8.24-1.57,20.28,20.28,0,0,1,8.17,1.57,18.8,18.8,0,0,1,6.14,4.21,17.93,17.93,0,0,1,3.85,6.14,20.47,20.47,0,0,1,1.32,7.28v1.78a7.21,7.21,0,0,1-.18,1.43h-28.9a11.13,11.13,0,0,0,1.07,3.92,9.73,9.73,0,0,0,2.21,2.93A9.61,9.61,0,0,0,286,82.69a10.07,10.07,0,0,0,3.57.64A11,11,0,0,0,295,81.94a7.37,7.37,0,0,0,3.46-3.67l8.2,2.28a16.68,16.68,0,0,1-6.6,7A20.46,20.46,0,0,1,289.2,90.33Zm9.71-22.55A9.94,9.94,0,0,0,295.8,61a9.61,9.61,0,0,0-15.34,2.93,10.26,10.26,0,0,0-1,3.78Z"/><path class="cls-1" d="M334,60.5a18.87,18.87,0,0,0-7.78,1.68A9.82,9.82,0,0,0,321.31,67V89.61h-9.56V52.22h8.78v8a17,17,0,0,1,2.35-3.46,18.15,18.15,0,0,1,2.93-2.68A13.61,13.61,0,0,1,329,52.33a8.78,8.78,0,0,1,3.1-.61h1.18a3.88,3.88,0,0,1,.75.07Z"/><path class="cls-1" d="M352.07,90.33a28.92,28.92,0,0,1-9.21-1.5,22.43,22.43,0,0,1-7.71-4.28l3.57-6a30.7,30.7,0,0,0,6.67,3.67,17.87,17.87,0,0,0,6.46,1.25,8.17,8.17,0,0,0,4.5-1.07A3.45,3.45,0,0,0,358,79.34a3.07,3.07,0,0,0-1.93-2.93,41.71,41.71,0,0,0-6.28-2.14q-3.64-1-6.21-1.93a16,16,0,0,1-4.14-2.1,7.21,7.21,0,0,1-2.28-2.71,8.65,8.65,0,0,1-.71-3.67,11.61,11.61,0,0,1,1.11-5.14,11.17,11.17,0,0,1,3.1-3.89,14.37,14.37,0,0,1,4.67-2.46,19,19,0,0,1,5.82-.86A25,25,0,0,1,359,52.72a19.24,19.24,0,0,1,6.74,3.92l-3.85,5.78a22.44,22.44,0,0,0-5.53-3.14,15.13,15.13,0,0,0-5.32-1,7.7,7.7,0,0,0-4.07,1,3.47,3.47,0,0,0-1.64,3.21,3.09,3.09,0,0,0,.39,1.64A3.43,3.43,0,0,0,347,65.28a12.09,12.09,0,0,0,2.25,1q1.39.46,3.46,1,3.85,1,6.6,2a18,18,0,0,1,4.5,2.28,8.14,8.14,0,0,1,2.57,3,9.11,9.11,0,0,1,.82,4,10.4,10.4,0,0,1-4.07,8.67Q359.07,90.33,352.07,90.33Z"/></g></g><path class="cls-1" d="M382.46,91c-2.62,0-4.46-2.08-4.46-4.85a4.55,4.55,0,0,1,4.62-4.85c2.69,0,4.54,2,4.54,4.85A4.5,4.5,0,0,1,382.54,91Z"/><path class="cls-1" d="M427.3,84.74c0,8.54-1.69,13.77-5.31,17-3.62,3.38-8.85,4.46-13.54,4.46-4.46,0-9.38-1.08-12.38-3.08L397.77,98a21,21,0,0,0,10.92,2.92c6.92,0,12-3.62,12-13V83.74h-.15C418.46,87.2,414.46,90,408.69,90c-9.23,0-15.85-7.85-15.85-18.15,0-12.62,8.23-19.77,16.77-19.77,6.46,0,10,3.38,11.62,6.46h.15l.31-5.61h5.92c-.15,2.69-.31,5.69-.31,10.23Zm-6.69-17.15a9.64,9.64,0,0,0-.38-3.08,9.75,9.75,0,0,0-9.46-7.15c-6.46,0-11.08,5.46-11.08,14.08,0,7.31,3.69,13.38,11,13.38a9.89,9.89,0,0,0,9.38-6.92,11.77,11.77,0,0,0,.54-3.62Z"/><path class="cls-1" d="M472.23,71.2C472.23,85,462.69,91,453.69,91c-10.08,0-17.85-7.38-17.85-19.15,0-12.46,8.15-19.77,18.46-19.77C465,52.05,472.23,59.82,472.23,71.2Zm-29.54.38c0,8.15,4.69,14.31,11.31,14.31,6.46,0,11.31-6.08,11.31-14.46,0-6.31-3.15-14.31-11.15-14.31S442.69,64.51,442.69,71.59Z"/><path class="cls-1" d="M482.85,52.9l7.31,20.92a95.81,95.81,0,0,1,3,9.54h.23c.85-3.08,1.92-6.15,3.15-9.54l7.23-20.92h7.08L496.23,90.13h-6.46L475.62,52.9Z"/><path class="cls-1" d="M517.08,91c-2.62,0-4.46-2.08-4.46-4.85a4.55,4.55,0,0,1,4.62-4.85c2.69,0,4.54,2,4.54,4.85A4.5,4.5,0,0,1,517.15,91Z"/><path class="cls-1" d="M556.31,81.2a52.48,52.48,0,0,0,.62,8.92h-6.15l-.54-4.69H550A13.86,13.86,0,0,1,538.61,91c-7.54,0-11.38-5.31-11.38-10.69,0-9,8-13.92,22.38-13.85v-.77c0-3.08-.85-8.62-8.46-8.62a18.56,18.56,0,0,0-9.69,2.77l-1.54-4.46a23.1,23.1,0,0,1,12.23-3.31c11.38,0,14.15,7.77,14.15,15.23Zm-6.54-10.08C542.38,71,534,72.28,534,79.51c0,4.38,2.92,6.46,6.38,6.46a9.26,9.26,0,0,0,9-6.23,7,7,0,0,0,.38-2.15Z"/><path class="cls-1" d="M598.38,80c0,3.85.08,7.23.31,10.15h-6l-.38-6.08h-.15A14,14,0,0,1,579.84,91C574,91,567,87.74,567,74.67V52.9h6.77V73.51c0,7.08,2.15,11.85,8.31,11.85A9.78,9.78,0,0,0,591,79.2a9.89,9.89,0,0,0,.62-3.46V52.9h6.77Z"/></g></g></svg>